<svg xmlns="http://www.w3.org/2000/svg" viewBox="0 0 458 512.98"><defs><style>.cls-1{fill:#be9ddf;}.cls-1,.cls-2,.cls-3,.cls-4,.cls-5,.cls-6,.cls-7{stroke:#000;stroke-miterlimit:10;}.cls-1,.cls-2,.cls-3,.cls-4,.cls-5{stroke-width:5px;}.cls-2{fill:#ffa5d8;}.cls-3{fill:#9579d1;}.cls-4{fill:#7eb8da;}.cls-5{fill:#92ddea;}.cls-6{fill:none;stroke-width:20px;}.cls-7{fill:#fff;stroke-width:3px;}</style></defs><title>DreamShop</title><g id="Layer_4" data-name="Layer 4"><polygon class="cls-1" points="31.86 223.98 88.86 244.98 82.86 138.69 40.86 121.55 31.86 223.98"/><polygon class="cls-2" points="93.57 315.69 88.86 244.98 31.86 223.98 27.14 308.83 93.57 315.69"/><polygon class="cls-3" points="52.86 428.83 23.71 357.69 27.14 308.83 223.86 330.26 215.71 364.12 52.86 428.83"/><polygon class="cls-2" points="76.29 493.26 23.71 357.69 18 442.98 23.71 463.55 39.14 482.41 76.29 493.26"/><polygon class="cls-4" points="131.14 493.26 126.57 398.98 52.86 428.83 76.29 493.26 131.14 493.26"/><polygon class="cls-5" points="183.71 496.12 215.71 364.12 126.57 398.98 131.14 493.26 183.71 496.12"/><polygon class="cls-2" points="271.71 494.98 319.71 417.83 236.86 281.26 183.71 496.12 271.71 494.98"/><polygon class="cls-5" points="255.71 200.69 207.74 183.48 82.86 138.69 93.57 315.69 255.71 200.69"/><polygon class="cls-3" points="182 110.41 45.43 112.69 40.86 123.55 207.74 183.48 182 110.41"/><polygon class="cls-4" points="277.43 110.41 255.71 200.69 207.74 183.48 182 110.41 277.43 110.41"/><polygon class="cls-2" points="367.14 238.41 408.86 114.41 400.29 110.41 277.43 110.41 255.71 200.69 367.14 238.41"/><polygon class="cls-4" points="427.14 261.26 423.14 180.12 386.57 182.98 367.14 238.41 427.14 261.26"/><polygon class="cls-1" points="420.86 126.41 408.86 114.41 386.57 182.98 423.14 180.12 420.86 126.41"/><polygon class="cls-1" points="420.29 258.98 255.71 200.69 236.86 281.26 319.71 417.83 420.29 258.98"/><polygon class="cls-5" points="381.43 495.55 440.29 422.98 436.29 374.41 388.86 309.83 271.71 494.98 381.43 495.55"/><polygon class="cls-3" points="414.57 490.41 430 480.12 439.14 461.83 440.29 422.98 381.43 495.55 414.57 490.41"/><polygon class="cls-2" points="436.29 374.41 427.14 261.26 420.29 258.98 388.86 309.83 436.29 374.41"/><polygon class="cls-4" points="255.71 200.69 223.86 330.26 92.29 316.98 255.71 200.69"/></g><g id="Layer_2" data-name="Layer 2"><path class="cls-6" d="M35.91,145.47,15.73,441.33a64,64,0,0,0,12,38.7c16.75,23,43.16,25.52,47.25,25.85l324.35,2.69c3.19-.11,27.78-1.39,43.52-22.56,13.51-18.17,10.9-38.11,10.32-42q-9.42-152-18.85-303.93a33.35,33.35,0,0,0-7.62-19.28c-10.17-12-25.33-11.72-27.37-11.65H62.83a34.34,34.34,0,0,0-17.2,9.26C35.06,129.1,35.76,143.12,35.91,145.47Z" transform="translate(-5.71 -5.59)"/><path class="cls-6" d="M185.43,177.71l-5.14-108c2.94-32.22,31.09-56,61.71-54C270.37,17.6,294,41.19,296,71c.86,32.14-3.43,73.29-2.57,105.43" transform="translate(-5.71 -5.59)"/><path class="cls-7" d="M331,212.69c-9.12-5.2-18.3-2.36-19.82-1.87l-143.1,58.44c-2.83,1-23,8.26-31,29.77-6.45,17.18-1,32.23.48,36L172,419.05a52.07,52.07,0,0,0,59.23,28.82l75.38-30.4a15,15,0,0,0,5.88-21.19l-19.27-47.06a4.27,4.27,0,0,1,2.54-5.26l20.72-8.65a23.79,23.79,0,0,0,10.28-12.19,24,24,0,0,0-.45-17.35,23.74,23.74,0,0,0-10.66-12.07c-9.07-4.85-18-1.68-19.34-1.16l-18.87,7.26a3.23,3.23,0,0,1-4.65-1.62l-6.13-14.4a2.91,2.91,0,0,1,.07-2.3,3,3,0,0,1,1.67-1.47l63-25.57a24.6,24.6,0,0,0,10-11.73,24.91,24.91,0,0,0,0-18A24.53,24.53,0,0,0,331,212.69Zm-76.5,171.86a7.17,7.17,0,0,1-3.2,3.66l-15.89,6.5a23.74,23.74,0,0,1-26.32-11.53l-20.51-50.07a21.69,21.69,0,0,1,.93-14.94,23.42,23.42,0,0,1,10.63-11c4.9-2.17,9.63-3.91,14.54-6.07a7.38,7.38,0,0,1,5.24.2,7.29,7.29,0,0,1,3.3,2.88l31.57,76.53A7,7,0,0,1,254.51,384.55Z" transform="translate(-5.71 -5.59)"/></g></svg>